# xmcd
#
# Track frame offsets: 
#        150
#        14991
#        34300
#        53255
#        75664
#        94334
#        110879
#        130197
#        154937
#        169542
#        192029
#
# Disc length: 2878 seconds
#
# Revision: 0
# Processed by: cddbd v1.5.2PL0 Copyright (c) Steve Scherf et al.
# Submitted via: ExactAudioCopy v0.95b3
#
DISCID=8d0b3c0b
DTITLE=John Miller - Popping Pills
DYEAR=2002
DGENRE=Country
TTITLE0=One Of Those Old Country Songs
TTITLE1=Don't Forget To Tell Him
TTITLE2=The Dream I Had Last Night
TTITLE3=Down Mexico Way
TTITLE4=Taking The Long Walk To Freedom
TTITLE5=We Don't Care Anymore
TTITLE6=Everybody Knows
TTITLE7=The Pain Inside
TTITLE8=Popping Pills
TTITLE9=I'm A Loser Again
TTITLE10=We've Fought Once Too Often Now
EXTD=
EXTT0=
EXTT1=
EXTT2=
EXTT3=
EXTT4=
EXTT5=
EXTT6=
EXTT7=
EXTT8=
EXTT9=
EXTT10=
PLAYORDER=
